<svg xmlns="http://www.w3.org/2000/svg" width="420.0mm" height="297.0mm" viewBox="0 0 420.0 297.0"><style>.v{stroke:#111;stroke-width:0.35;fill:none;stroke-linecap:round}.h{stroke:#666;stroke-width:0.18;fill:none;stroke-dasharray:1.8,1.2}.d{stroke:#111;stroke-width:0.13;fill:none}.t{font:3px sans-serif;fill:#111}.lbl{font:3.5px sans-serif;fill:#111}.tb{stroke:#111;stroke-width:0.3;fill:none}</style><rect x="0" y="0" width="420.0" height="297.0" fill="white"/><rect x="5" y="5" width="410.0" height="287.0" class="tb"/><polyline class="v" points="29.000,268.000 29.000,252.000"/><polyline class="v" points="29.000,268.000 149.000,268.000"/><polyline class="v" points="149.000,268.000 149.000,252.000"/><polyline class="v" points="29.000,252.000 149.000,252.000"/><polyline class="h" points="29.000,268.000 29.000,252.000"/><polyline class="h" points="29.000,252.000 149.000,252.000"/><polyline class="h" points="59.400,252.000 59.240,252.000 58.766,252.000 58.004,252.000 56.990,252.000 55.777,252.000 54.424,252.000 53.000,252.000 51.576,252.000 50.223,252.000 49.010,252.000 47.996,252.000 47.234,252.000 46.760,252.000 46.600,252.000"/><polyline class="h" points="46.600,252.000 46.760,252.000 47.234,252.000 47.996,252.000 49.010,252.000 50.223,252.000 51.576,252.000 53.000,252.000 54.424,252.000 55.777,252.000 56.990,252.000 58.004,252.000 58.766,252.000 59.240,252.000 59.400,252.000"/><polyline class="h" points="131.400,252.000 131.240,252.000 130.766,252.000 130.004,252.000 128.990,252.000 127.777,252.000 126.424,252.000 125.000,252.000 123.576,252.000 122.223,252.000 121.010,252.000 119.996,252.000 119.234,252.000 118.760,252.000 118.600,252.000"/><polyline class="h" points="118.600,252.000 118.760,252.000 119.234,252.000 119.996,252.000 121.010,252.000 122.223,252.000 123.576,252.000 125.000,252.000 126.424,252.000 127.777,252.000 128.990,252.000 130.004,252.000 130.766,252.000 131.240,252.000 131.400,252.000"/><polyline class="h" points="29.000,268.000 149.000,268.000"/><polyline class="h" points="149.000,268.000 149.000,252.000"/><polyline class="h" points="59.400,268.000 59.240,268.000 58.766,268.000 58.004,268.000 56.990,268.000 55.777,268.000 54.424,268.000 53.000,268.000 51.576,268.000 50.223,268.000 49.010,268.000 47.996,268.000 47.234,268.000 46.760,268.000 46.600,268.000"/><polyline class="h" points="46.600,268.000 46.760,268.000 47.234,268.000 47.996,268.000 49.010,268.000 50.223,268.000 51.576,268.000 53.000,268.000 54.424,268.000 55.777,268.000 56.990,268.000 58.004,268.000 58.766,268.000 59.240,268.000 59.400,268.000"/><polyline class="h" points="131.400,268.000 131.240,268.000 130.766,268.000 130.004,268.000 128.990,268.000 127.777,268.000 126.424,268.000 125.000,268.000 123.576,268.000 122.223,268.000 121.010,268.000 119.996,268.000 119.234,268.000 118.760,268.000 118.600,268.000"/><polyline class="h" points="118.600,268.000 118.760,268.000 119.234,268.000 119.996,268.000 121.010,268.000 122.223,268.000 123.576,268.000 125.000,268.000 126.424,268.000 127.777,268.000 128.990,268.000 130.004,268.000 130.766,268.000 131.240,268.000 131.400,268.000"/><polyline class="h" points="59.400,268.000 59.400,252.000"/><polyline class="h" points="131.400,268.000 131.400,252.000"/><text class="lbl" x="29.00" y="273.00">FRONT  (2:1)</text><polyline class="v" points="29.000,234.000 29.000,154.000"/><polyline class="v" points="29.000,234.000 149.000,234.000"/><polyline class="v" points="29.000,154.000 149.000,154.000"/><polyline class="v" points="149.000,234.000 149.000,154.000"/><polyline class="v" points="59.400,210.000 59.014,207.811 57.903,205.886 56.200,204.457 54.111,203.697 51.889,203.697 49.800,204.457 48.097,205.886 46.986,207.811 46.600,210.000 46.986,212.189 48.097,214.114 49.800,215.543 51.889,216.303 54.111,216.303 56.200,215.543 57.903,214.114 59.014,212.189 59.400,210.000"/><polyline class="v" points="131.400,178.000 131.014,175.811 129.903,173.886 128.200,172.457 126.111,171.697 123.889,171.697 121.800,172.457 120.097,173.886 118.986,175.811 118.600,178.000 118.986,180.189 120.097,182.114 121.800,183.543 123.889,184.303 126.111,184.303 128.200,183.543 129.903,182.114 131.014,180.189 131.400,178.000"/><polyline class="h" points="29.000,234.000 29.000,154.000"/><polyline class="h" points="29.000,234.000 149.000,234.000"/><polyline class="h" points="29.000,154.000 149.000,154.000"/><polyline class="h" points="149.000,234.000 149.000,154.000"/><polyline class="h" points="59.400,210.000 59.014,207.811 57.903,205.886 56.200,204.457 54.111,203.697 51.889,203.697 49.800,204.457 48.097,205.886 46.986,207.811 46.600,210.000 46.986,212.189 48.097,214.114 49.800,215.543 51.889,216.303 54.111,216.303 56.200,215.543 57.903,214.114 59.014,212.189 59.400,210.000"/><polyline class="h" points="131.400,178.000 131.014,175.811 129.903,173.886 128.200,172.457 126.111,171.697 123.889,171.697 121.800,172.457 120.097,173.886 118.986,175.811 118.600,178.000 118.986,180.189 120.097,182.114 121.800,183.543 123.889,184.303 126.111,184.303 128.200,183.543 129.903,182.114 131.014,180.189 131.400,178.000"/><text class="lbl" x="29.00" y="239.00">TOP  (2:1)</text><polyline class="v" points="167.000,268.000 167.000,252.000"/><polyline class="v" points="167.000,252.000 247.000,252.000"/><polyline class="v" points="247.000,268.000 247.000,252.000"/><polyline class="v" points="167.000,268.000 247.000,268.000"/><polyline class="h" points="167.000,268.000 167.000,252.000"/><polyline class="h" points="167.000,252.000 247.000,252.000"/><polyline class="h" points="247.000,268.000 247.000,252.000"/><polyline class="h" points="167.000,268.000 247.000,268.000"/><polyline class="h" points="191.000,252.000 191.717,252.000 192.424,252.000 193.114,252.000 193.777,252.000 194.405,252.000 194.990,252.000 195.525,252.000 196.004,252.000 196.419,252.000 196.766,252.000 197.041,252.000 197.240,252.000 197.360,252.000 197.400,252.000"/><polyline class="h" points="197.400,252.000 197.240,252.000 196.766,252.000 196.004,252.000 194.990,252.000 193.777,252.000 192.424,252.000 191.000,252.000 189.576,252.000 188.223,252.000 187.010,252.000 185.996,252.000 185.234,252.000 184.760,252.000 184.600,252.000"/><polyline class="h" points="184.600,252.000 184.640,252.000 184.760,252.000 184.959,252.000 185.234,252.000 185.581,252.000 185.996,252.000 186.475,252.000 187.010,252.000 187.595,252.000 188.223,252.000 188.886,252.000 189.576,252.000 190.283,252.000 191.000,252.000"/><polyline class="h" points="223.000,252.000 223.717,252.000 224.424,252.000 225.114,252.000 225.777,252.000 226.405,252.000 226.990,252.000 227.525,252.000 228.004,252.000 228.419,252.000 228.766,252.000 229.041,252.000 229.240,252.000 229.360,252.000 229.400,252.000"/><polyline class="h" points="229.400,252.000 229.240,252.000 228.766,252.000 228.004,252.000 226.990,252.000 225.777,252.000 224.424,252.000 223.000,252.000 221.576,252.000 220.223,252.000 219.010,252.000 217.996,252.000 217.234,252.000 216.760,252.000 216.600,252.000"/><polyline class="h" points="216.600,252.000 216.640,252.000 216.760,252.000 216.959,252.000 217.234,252.000 217.581,252.000 217.996,252.000 218.475,252.000 219.010,252.000 219.595,252.000 220.223,252.000 220.886,252.000 221.576,252.000 222.283,252.000 223.000,252.000"/><polyline class="h" points="191.000,268.000 191.717,268.000 192.424,268.000 193.114,268.000 193.777,268.000 194.405,268.000 194.990,268.000 195.525,268.000 196.004,268.000 196.419,268.000 196.766,268.000 197.041,268.000 197.240,268.000 197.360,268.000 197.400,268.000"/><polyline class="h" points="197.400,268.000 197.240,268.000 196.766,268.000 196.004,268.000 194.990,268.000 193.777,268.000 192.424,268.000 191.000,268.000 189.576,268.000 188.223,268.000 187.010,268.000 185.996,268.000 185.234,268.000 184.760,268.000 184.600,268.000"/><polyline class="h" points="184.600,268.000 184.640,268.000 184.760,268.000 184.959,268.000 185.234,268.000 185.581,268.000 185.996,268.000 186.475,268.000 187.010,268.000 187.595,268.000 188.223,268.000 188.886,268.000 189.576,268.000 190.283,268.000 191.000,268.000"/><polyline class="h" points="223.000,268.000 223.717,268.000 224.424,268.000 225.114,268.000 225.777,268.000 226.405,268.000 226.990,268.000 227.525,268.000 228.004,268.000 228.419,268.000 228.766,268.000 229.041,268.000 229.240,268.000 229.360,268.000 229.400,268.000"/><polyline class="h" points="229.400,268.000 229.240,268.000 228.766,268.000 228.004,268.000 226.990,268.000 225.777,268.000 224.424,268.000 223.000,268.000 221.576,268.000 220.223,268.000 219.010,268.000 217.996,268.000 217.234,268.000 216.760,268.000 216.600,268.000"/><polyline class="h" points="216.600,268.000 216.640,268.000 216.760,268.000 216.959,268.000 217.234,268.000 217.581,268.000 217.996,268.000 218.475,268.000 219.010,268.000 219.595,268.000 220.223,268.000 220.886,268.000 221.576,268.000 222.283,268.000 223.000,268.000"/><text class="lbl" x="167.00" y="273.00">RIGHT  (2:1)</text><polyline class="v" points="323.147,106.714 266.579,74.054"/><polyline class="v" points="266.579,60.990 266.579,74.054"/><polyline class="v" points="408.000,44.660 408.000,57.724"/><polyline class="v" points="323.147,106.714 408.000,57.724"/><polyline class="v" points="266.579,74.054 351.431,25.064"/><polyline class="v" points="408.000,57.724 351.431,25.064"/><polyline class="v" points="327.673,84.505 326.164,83.859 324.396,83.494 322.520,83.440 320.698,83.704 319.087,84.261 317.826,85.065 317.023,86.045 316.747,87.118"/><polyline class="v" points="316.747,87.118 316.870,87.839 317.234,88.532 318.622,89.730 320.698,90.531 323.147,90.813 325.596,90.531 327.673,89.730 329.060,88.532 329.424,87.839 329.547,87.118"/><polyline class="v" points="329.547,87.118 329.424,86.397 329.060,85.704 327.673,84.505"/><polyline class="v" points="355.957,42.047 354.448,41.401 352.680,41.036 350.804,40.983 348.982,41.246 347.371,41.804 346.110,42.607 345.307,43.587 345.031,44.660"/><polyline class="v" points="345.031,44.660 345.154,45.381 345.519,46.074 346.906,47.273 348.982,48.074 351.431,48.355 353.881,48.074 355.957,47.273 357.344,46.074 357.708,45.381 357.831,44.660"/><polyline class="v" points="357.831,44.660 357.708,43.939 357.344,43.246 355.957,42.047"/><polyline class="v" points="266.579,60.990 351.431,12.000"/><polyline class="v" points="351.431,12.000 351.431,25.064"/><polyline class="v" points="408.000,44.660 351.431,12.000"/><polyline class="h" points="323.147,93.650 323.147,106.714"/><polyline class="h" points="323.147,93.650 266.579,60.990"/><polyline class="h" points="323.147,93.650 408.000,44.660"/><polyline class="h" points="327.673,71.441 326.164,70.795 324.396,70.430 322.520,70.376 320.698,70.640 319.087,71.197 317.826,72.001 317.023,72.981 316.747,74.054"/><polyline class="h" points="316.747,74.054 316.870,74.775 317.234,75.468 318.622,76.667 320.698,77.468 323.147,77.749 325.596,77.468 327.673,76.667 329.060,75.468 329.424,74.775 329.547,74.054"/><polyline class="h" points="329.547,74.054 329.424,73.333 329.060,72.640 327.673,71.441"/><polyline class="h" points="355.957,28.983 354.448,28.337 352.680,27.972 350.804,27.919 348.982,28.182 347.371,28.740 346.110,29.543 345.307,30.523 345.031,31.596"/><polyline class="h" points="345.031,31.596 345.154,32.317 345.519,33.010 346.906,34.209 348.982,35.010 351.431,35.291 353.881,35.010 355.957,34.209 357.344,33.010 357.708,32.317 357.831,31.596"/><polyline class="h" points="357.831,31.596 357.708,30.875 357.344,30.182 355.957,28.983"/><text class="lbl" x="266.58" y="111.71">ISO</text><line class="d" x1="29.00" y1="277.00" x2="149.00" y2="277.00"/><line class="d" x1="29.00" y1="277.00" x2="30.20" y2="276.40"/><line class="d" x1="29.00" y1="277.00" x2="30.20" y2="277.60"/><line class="d" x1="149.00" y1="277.00" x2="147.80" y2="276.40"/><line class="d" x1="149.00" y1="277.00" x2="147.80" y2="277.60"/><text class="t" x="89.00" y="275.80" text-anchor="middle">60</text><line class="d" x1="20.00" y1="268.00" x2="20.00" y2="252.00"/><line class="d" x1="20.00" y1="268.00" x2="19.40" y2="266.80"/><line class="d" x1="20.00" y1="268.00" x2="20.60" y2="266.80"/><line class="d" x1="20.00" y1="252.00" x2="19.40" y2="253.20"/><line class="d" x1="20.00" y1="252.00" x2="20.60" y2="253.20"/><text class="t" x="18.80" y="260.00" text-anchor="middle" transform="rotate(-90 18.80 260.00)">8</text><line class="d" x1="20.00" y1="234.00" x2="20.00" y2="154.00"/><line class="d" x1="20.00" y1="234.00" x2="19.40" y2="232.80"/><line class="d" x1="20.00" y1="234.00" x2="20.60" y2="232.80"/><line class="d" x1="20.00" y1="154.00" x2="19.40" y2="155.20"/><line class="d" x1="20.00" y1="154.00" x2="20.60" y2="155.20"/><text class="t" x="18.80" y="194.00" text-anchor="middle" transform="rotate(-90 18.80 194.00)">40</text><rect x="323.0" y="272.00" width="92.0" height="20.0" class="tb"/><text class="lbl" x="326.00" y="277.20">bracket 60x40x8</text><text class="t" x="326.00" y="282.60">SCALE 2:1   UNITS mm   SHEET A3</text><text class="t" x="326.00" y="287.60">gitcad — generated drawing</text></svg>
